<?xml version="1.0" encoding="utf-8"?>
<!-- Generator: Adobe Illustrator 22.0.1, SVG Export Plug-In . SVG Version: 6.00 Build 0)  -->
<svg version="1.1" id="Layer_1" xmlns="http://www.w3.org/2000/svg" xmlns:xlink="http://www.w3.org/1999/xlink" x="0px" y="0px"
	 viewBox="0 0 482 490.4" style="enable-background:new 0 0 482 490.4;" xml:space="preserve">
<style type="text/css">
	.st0{fill:#F7941D;}
</style>
<g>
	<g>
		<g>
			<g>
				<path d="M18.7,207.3c-1.2,0-2.4-0.1-3.6-0.4c-8.4-2-13.5-10.3-11.5-18.7C14.6,141.6,40,97.9,75.1,65
					C128.3,15.1,201.1-7.7,274.8,2.3c74.9,10.2,142.4,53.6,180.4,116c4.5,7.3,2.1,16.9-5.2,21.4c-7.3,4.5-16.9,2.1-21.4-5.2
					C395.5,80,336.4,42.1,270.6,33.1c-64.3-8.8-127.9,11.1-174.3,54.6c-30.7,28.7-52.9,66.9-62.5,107.6
					C32.2,202.5,25.8,207.3,18.7,207.3z"/>
			</g>
			<g>
				<g>
					<polygon points="467,79.2 434.4,113.8 386.9,114.4 468.7,191.7 					"/>
				</g>
			</g>
		</g>
		<g>
			<g>
				<path d="M247.3,490.4c-10.7,0-21.5-0.7-32.4-2c-73.4-9.2-138.2-48.8-177.8-108.6c-4.7-7.2-2.8-16.8,4.4-21.5
					c7.2-4.7,16.8-2.8,21.5,4.4c34.6,52.2,91.4,86.8,155.8,94.9c63,7.9,123.2-10.7,169.3-52.4c30.5-27.6,52.4-63,63.3-102.3
					c2.3-8.3,10.9-13.1,19.1-10.8c8.3,2.3,13.1,10.9,10.8,19.1c-12.5,45.1-37.5,85.6-72.4,117.1C364,468.9,307.5,490.4,247.3,490.4z
					"/>
			</g>
			<g>
				<g>
					<polygon points="26.9,419.4 58.1,383.5 105.6,381.1 20.9,307 					"/>
				</g>
			</g>
		</g>
		<g>
			<circle class="st0" cx="15.9" cy="256.8" r="15.9"/>
		</g>
	</g>
	<g>
		<path class="st0" d="M141.9,279.8l16.4,16.4c-10.6,10.6-23.4,15.9-38.4,15.9s-27.8-5.3-38.4-15.9c-10.6-10.6-15.9-23.4-15.9-38.4
			c0-15,5.3-27.8,15.9-38.4c10.6-10.6,23.4-15.9,38.4-15.9s27.8,5.3,38.4,15.9l-16.4,16.4c-6.1-6.1-13.4-9.1-22-9.1
			c-8.6,0-15.9,3-22,9.1c-6.1,6-9.1,13.4-9.1,21.9c0,8.6,3,15.9,9.1,22c6.1,6,13.4,9.1,22,9.1C128.5,288.9,135.9,285.9,141.9,279.8z
			"/>
		<path class="st0" d="M291.3,203.6v23.3h-62v19.4h62v23.3h-62v42.7H206V203.6H291.3z"/>
		<path class="st0" d="M389,312.2h-50.4v-23.3H389c2.7,0,5-0.9,6.9-2.8s2.8-4.2,2.8-6.9c0-2.7-0.9-5-2.8-6.9s-4.2-2.8-6.9-2.8h-19.4
			c-9.1,0-16.9-3.2-23.3-9.7c-6.4-6.4-9.7-14.2-9.7-23.3s3.2-16.9,9.7-23.3c6.4-6.4,14.2-9.7,23.3-9.7h50.4v23.3h-50.4
			c-2.7,0-5,0.9-6.9,2.8c-1.9,1.9-2.8,4.2-2.8,6.9s0.9,5,2.8,6.9c1.9,1.9,4.2,2.8,6.9,2.8H389c9.1,0,16.9,3.2,23.3,9.7
			c6.4,6.4,9.7,14.2,9.7,23.3c0,9.1-3.2,16.9-9.7,23.3C405.9,309,398.1,312.2,389,312.2z"/>
	</g>
</g>
</svg>
